<svg viewBox="0 0 500 500" version="1.1" id="svg340" sodipodi:docname="form.svg" inkscape:version="1.2.2 (b0a8486541, 2022-12-01)" xmlns:inkscape="http://www.inkscape.org/namespaces/inkscape" xmlns:sodipodi="http://sodipodi.sourceforge.net/DTD/sodipodi-0.dtd" xmlns="http://www.w3.org/2000/svg" xmlns:svg="http://www.w3.org/2000/svg" height="100px" width="100px" transform="rotate(0) scale(1, 1)">
  <defs id="defs344"/>
  <sodipodi:namedview id="namedview342" pagecolor="#ffffff" bordercolor="#000000" borderopacity="0.25" inkscape:showpageshadow="2" inkscape:pageopacity="0.0" inkscape:pagecheckerboard="0" inkscape:deskcolor="#d1d1d1" showgrid="false" inkscape:zoom="0.95226594" inkscape:cx="274.0831" inkscape:cy="267.25728" inkscape:window-width="1366" inkscape:window-height="699" inkscape:window-x="0" inkscape:window-y="32" inkscape:window-maximized="1" inkscape:current-layer="svg340"/>
  <g id="freepik--background-complete--inject-11" transform="translate(-44.687123)">
    <g id="freepik--Plant--inject-14" transform="matrix(-1,0,0,1,498.41547,57.008011)">
      <path d="m 410.45,384.72 c 0.15,-1 3.65,-25.17 -3.36,-33.51 a 7.59,7.59 0 0 0 -5.82,-2.87 c -14.16,-0.33 -16.09,11 -16.11,11.15 l 1.67,0.26 c 0.06,-0.41 1.74,-10 14.4,-9.72 a 5.92,5.92 0 0 1 4.57,2.26 c 6.52,7.77 3,31.93 3,32.18 z" style="fill: #1DA1F2" id="path1732"/>
      <path d="m 411.3,383.62 1.69,-0.06 c 0,-0.22 -0.56,-22.25 10.29,-26.8 10.64,-4.45 15.43,4.71 15.62,5.1 l 1.51,-0.76 c -0.05,-0.11 -5.67,-11 -17.78,-5.89 -11.92,4.99 -11.36,27.45 -11.33,28.41 z" style="fill: #1DA1F2" id="path1734"/>
      <path d="m 411.25,385.35 c 0,-0.35 0.11,-35.19 6.9,-45.38 6.52,-9.79 17,-5.18 17.49,-5 l 0.69,-1.54 c -0.12,-0.05 -12.26,-5.41 -19.59,5.58 -7.07,10.61 -7.17,44.86 -7.17,46.32 z" style="fill: #1DA1F2" id="path1736"/>
      <path d="m 399.24,349.18 c 0,0 6.18,2.28 4.34,7.65 -1.84,5.37 -21.37,14.23 -21.37,14.23 0,0 -8.19,-7.5 -0.67,-19.7 7.52,-12.2 17.53,-6.03 17.7,-2.18 z" style="fill: #1DA1F2" id="path1738"/>
      <path d="m 418.45,338.13 c 0,0 -4.38,-0.47 -4,-3.14 0.38,-2.67 17.06,-9.55 26.91,1.57 0,0 -6.31,10.84 -15.43,11 -9.12,0.16 -7.48,-9.43 -7.48,-9.43 z" style="fill: #1DA1F2" id="path1740"/>
      <path d="m 423,356 c 0,0 -3,-2.44 0.24,-3.63 3.24,-1.19 19.3,-0.86 19.46,15 0,0 -18.67,3.11 -21,-2.94 -2.33,-6.05 1.3,-8.43 1.3,-8.43 z" style="fill: #1DA1F2" id="path1742"/>
      <path d="m 399.24,349.18 c 0,0 6.18,2.28 4.34,7.65 -1.84,5.37 -21.37,14.23 -21.37,14.23 0,0 -8.19,-7.5 -0.67,-19.7 7.52,-12.2 17.53,-6.03 17.7,-2.18 z" style="opacity:0.2;isolation:isolate" id="path1744"/>
      <path d="m 418.45,338.13 c 0,0 -4.38,-0.47 -4,-3.14 0.38,-2.67 17.06,-9.55 26.91,1.57 0,0 -6.31,10.84 -15.43,11 -9.12,0.16 -7.48,-9.43 -7.48,-9.43 z" style="opacity:0.2;isolation:isolate" id="path1746"/>
      <path d="m 423,356 c 0,0 -3,-2.44 0.24,-3.63 3.24,-1.19 19.3,-0.86 19.46,15 0,0 -18.67,3.11 -21,-2.94 -2.33,-6.05 1.3,-8.43 1.3,-8.43 z" style="opacity:0.2;isolation:isolate" id="path1748"/>
      <polygon points="395.92,417.07 424.9,417.07 428.02,385.35 392.8,385.35 " style="fill: #1DA1F2" id="polygon1750"/>
      <polygon points="395.92,417.07 424.9,417.07 428.02,385.35 392.8,385.35 " style="opacity:0.5;isolation:isolate;fill:#ffffff" id="polygon1752"/>
      <rect x="391.25" y="381.85001" width="38.32" height="7" transform="rotate(180,410.41,385.345)" style="fill: #1DA1F2" id="rect1754"/>
      <rect x="391.25" y="381.85001" width="38.32" height="7" transform="rotate(180,410.41,385.345)" style="opacity:0.2;isolation:isolate;fill:#ffffff" id="rect1756"/>
    </g>
    <g id="freepik--speech-bubble--inject-14" transform="matrix(-1,0,0,1,593.91649,-104.88784)">
      <rect x="342.78" y="157.14999" width="45.049999" height="25.07" rx="5.0700002" style="fill: #1DA1F2" id="rect1921"/>
      <polygon points="361.3,180.32 354.85,179.36 344.33,193.66 " style="fill: #1DA1F2" id="polygon1923"/>
      <path d="m 355.24,169.68 a 1.48,1.48 0 1 1 -1.47,-1.47 1.47,1.47 0 0 1 1.47,1.47 z" style="fill:#ffffff" id="path1925"/>
      <path d="m 362.93,169.68 a 1.48,1.48 0 1 1 -1.47,-1.47 1.47,1.47 0 0 1 1.47,1.47 z" style="fill:#ffffff" id="path1927"/>
      <path d="m 370.62,169.68 a 1.48,1.48 0 1 1 -1.47,-1.47 1.47,1.47 0 0 1 1.47,1.47 z" style="fill:#ffffff" id="path1929"/>
      <path d="m 378.31,169.68 a 1.48,1.48 0 1 1 -1.47,-1.47 1.47,1.47 0 0 1 1.47,1.47 z" style="fill:#ffffff" id="path1931"/>
    </g>
  </g>
  <g id="freepik--Briefcase--inject-11" transform="translate(200)">
    <polygon points="194.53,473.75 118.07,473.75 123.85,418.09 194.53,417.63 " style="fill: #1DA1F2" id="polygon124"/>
    <g style="opacity:0.4" id="g128">
      <polygon points="194.53,473.75 118.07,473.75 123.85,418.09 194.53,417.63 " id="polygon126"/>
    </g>
    <rect x="129.22" y="417.63" width="76.459999" height="56.110001" style="fill: #1DA1F2" id="rect130"/>
    <g style="opacity:0.2" id="g134">
      <rect x="129.22" y="417.63" width="76.459999" height="56.110001" id="rect132"/>
    </g>
    <path d="m 206.32,444.8 c 0,0.14 -17.2,0.26 -38.41,0.26 -21.21,0 -38.43,-0.12 -38.43,-0.26 0,-0.14 17.2,-0.27 38.43,-0.27 21.23,0 38.41,0.12 38.41,0.27 z" style="fill:#263238" id="path136"/>
    <path d="m 142.84,450.2 a 34.13,34.13 0 0 1 0,-8.41 34.13,34.13 0 0 1 0,8.41 z" style="fill:#263238" id="path138"/>
    <path d="m 196,449.9 a 27.25,27.25 0 0 1 0,-7.51 27.25,27.25 0 0 1 0,7.51 z" style="fill:#263238" id="path140"/>
    <path d="m 179.16,417.92 c 0,0 0,-0.61 -0.18,-1.66 a 10.68,10.68 0 0 0 -1.7,-4.15 12.15,12.15 0 0 0 -5.05,-4.24 18,18 0 0 0 -8,-1.51 19.48,19.48 0 0 0 -8,1.79 13.28,13.28 0 0 0 -5.11,4.21 11.5,11.5 0 0 0 -1.87,4.08 c -0.24,1.05 -0.25,1.65 -0.3,1.65 a 2.12,2.12 0 0 1 0,-0.44 6.8,6.8 0 0 1 0.12,-1.25 10.89,10.89 0 0 1 1.77,-4.25 13.3,13.3 0 0 1 5.2,-4.43 19.5,19.5 0 0 1 8.15,-1.88 18.05,18.05 0 0 1 8.21,1.6 12.35,12.35 0 0 1 5.15,4.47 10.1,10.1 0 0 1 1.59,4.32 7.11,7.11 0 0 1 0,1.25 1.29,1.29 0 0 1 0.02,0.44 z" style="fill:#263238" id="path142"/>
  </g>
  <g id="freepik--Plant--inject-11" transform="translate(-54)">
    <path d="m 150.48,201.2 a 18.85,18.85 0 0 1 11.72,-1.42 c 2.13,0.35 4.35,1 5.79,2.58 1.44,1.58 1.72,4.41 0.06,5.78 a 5.56,5.56 0 0 1 -3.65,0.93 c -3.1,0 -6.53,-0.58 -9,1.28 -1.41,1.06 -2.35,2.83 -4,3.35 a 4,4 0 0 1 -4.39,-1.95 6.78,6.78 0 0 1 -0.5,-5 7.69,7.69 0 0 1 3.97,-5.55 z" style="fill: #1DA1F2" id="path145"/>
    <path d="m 142.32,185.43 c 2.18,3.12 6.41,2.09 8.38,0.19 1.97,-1.9 2.79,-4.66 3.55,-7.28 1.72,-6 3.46,-12.3 2.18,-18.41 a 10.25,10.25 0 0 0 -2.35,-5 5.34,5.34 0 0 0 -5.06,-1.68 c -2.14,0.56 -3.47,2.65 -4.43,4.65 a 43.83,43.83 0 0 0 -4.33,18.83 c 0,3 0.34,6.21 2.06,8.71" style="fill: #1DA1F2" id="path147"/>
    <path d="m 136.33,189.9 a 11.29,11.29 0 0 0 1.76,-10.42 20.06,20.06 0 0 0 -6.17,-9 33.1,33.1 0 0 0 -11.06,-6.48 11.67,11.67 0 0 0 -5,-0.85 5.2,5.2 0 0 0 -4.17,2.53 c -1.17,2.22 0,4.91 1.15,7.1 a 84.34,84.34 0 0 0 7.27,11.06 c 2.17,2.81 4.67,5.58 8,6.84 3.33,1.26 6.77,1.12 8.53,-1.18" style="fill: #1DA1F2" id="path149"/>
    <path d="m 142.17,232.4 a 7.67,7.67 0 0 0 0.2,-1.42 c 0.1,-1 0.22,-2.32 0.37,-3.86 a 56.57,56.57 0 0 1 0.87,-5.66 42.81,42.81 0 0 1 2.06,-6.68 24.53,24.53 0 0 1 3.41,-6.05 12.76,12.76 0 0 1 4.32,-3.59 12.1,12.1 0 0 1 3.6,-1.14 6.85,6.85 0 0 0 1.41,-0.2 6.7,6.7 0 0 0 -1.44,0 11.28,11.28 0 0 0 -3.78,1 12.75,12.75 0 0 0 -4.56,3.62 23.88,23.88 0 0 0 -3.53,6.17 41.08,41.08 0 0 0 -2,6.79 47.82,47.82 0 0 0 -0.75,5.74 c -0.12,1.64 -0.17,3 -0.19,3.88 a 6.63,6.63 0 0 0 0.01,1.4 z" style="fill:#263238" id="path151"/>
    <path d="m 142.43,229.43 a 2.44,2.44 0 0 0 0,-0.66 v -1.88 c 0,-1.62 0,-4 0.08,-6.89 0.14,-5.83 0.65,-12.09 1.61,-20.93 0.92,-8.3 2.15,-18 3.45,-24.26 0.28,-1.43 0.56,-2.71 0.82,-3.84 0.26,-1.13 0.47,-2.1 0.68,-2.89 0.21,-0.79 0.32,-1.34 0.44,-1.82 a 2.79,2.79 0 0 0 0.11,-0.65 2.59,2.59 0 0 0 -0.23,0.62 l -0.54,1.79 c -0.24,0.78 -0.49,1.75 -0.77,2.88 -0.28,1.13 -0.61,2.4 -0.91,3.83 a 211.71,211.71 0 0 0 -3.63,22.51 c -1,8.85 -1.4,16.91 -1.44,22.75 0,2.92 0,5.28 0.1,6.91 0,0.76 0.08,1.38 0.11,1.88 a 3.51,3.51 0 0 0 0.12,0.65 z" style="fill:#263238" id="path153"/>
    <path d="m 142.47,213.88 a 11.78,11.78 0 0 0 0,-2 c -0.07,-1.26 -0.25,-3.08 -0.6,-5.31 a 69.72,69.72 0 0 0 -1.73,-7.74 63.24,63.24 0 0 0 -3.24,-9.16 48.67,48.67 0 0 0 -9.5,-14.8 22.84,22.84 0 0 0 -2.24,-2.08 c -0.34,-0.29 -0.64,-0.58 -1,-0.81 l -0.87,-0.6 a 11.49,11.49 0 0 0 -1.65,-1 56.68,56.68 0 0 1 5.41,4.82 51.41,51.41 0 0 1 9.27,14.75 72.31,72.31 0 0 1 3.25,9.08 76.7,76.7 0 0 1 1.84,7.66 c 0.41,2.21 0.64,4 0.78,5.26 a 13.26,13.26 0 0 0 0.28,1.93 z" style="fill:#263238" id="path155"/>
    <polygon points="157.98,241.31 127.45,241.31 129,262.65 156.42,262.65 " style="fill:#263238" id="polygon157"/>
    <rect x="124.8" y="232.89" width="36.450001" height="8.4099998" style="fill:#263238" id="rect159"/>
    <polygon points="126.51,264.16 160.65,264.16 160.65,261.83 124.8,261.83 124.8,264.16 " style="fill:#455a64" id="polygon161"/>
    <polygon points="157.38,268.27 128.19,268.27 126.51,264.16 159.34,264.16 " style="fill:#455a64" id="polygon163"/>
    <path d="m 157.47,248.28 c 0,0 0,0.07 -0.13,0.2 l -0.41,0.54 -1.59,2 -0.08,0.1 -0.06,-0.1 -3.93,-5.43 h 0.23 l -3.87,5.47 -0.12,0.18 -0.13,-0.17 c -1.43,-1.69 -3,-3.53 -4.58,-5.45 h 0.26 l -0.25,0.32 -4.1,5.13 -0.14,0.17 -0.12,-0.18 -3.87,-5.46 h 0.23 l -4.76,5.42 -0.09,0.1 -0.06,-0.11 -1.49,-2.51 -0.38,-0.66 a 1,1 0 0 1 -0.12,-0.24 1.37,1.37 0 0 1 0.16,0.21 l 0.42,0.64 1.57,2.46 h -0.15 l 4.68,-5.49 0.12,-0.14 0.11,0.15 c 1.18,1.65 2.49,3.49 3.9,5.44 h -0.27 l 4.09,-5.15 0.25,-0.31 0.13,-0.17 0.14,0.16 c 1.6,1.92 3.14,3.77 4.57,5.47 h -0.26 l 3.9,-5.45 0.12,-0.16 0.11,0.16 3.84,5.49 h -0.14 c 0.7,-0.83 1.26,-1.5 1.66,-2 l 0.45,-0.51 a 0.84,0.84 0 0 1 0.16,-0.12 z" style="fill:#e0e0e0" id="path165"/>
    <path d="m 158.36,241.17 c 0,0.09 -6.87,0.17 -15.34,0.17 -8.47,0 -15.35,-0.08 -15.35,-0.17 0,-0.09 6.87,-0.17 15.33,-0.17 8.46,0 15.36,0.07 15.36,0.17 z" style="fill:#455a64" id="path167"/>
    <path d="m 159.75,264.39 c 0,0.1 -7.47,0.17 -16.68,0.17 -9.21,0 -16.67,-0.07 -16.67,-0.17 0,-0.1 7.46,-0.17 16.67,-0.17 9.21,0 16.68,0.08 16.68,0.17 z" style="fill:#263238" id="path169"/>
  </g>
  <g id="freepik--Desk--inject-11" transform="translate(-52)">
    <rect x="301.60001" y="264.84" width="80.279999" height="3.9000001" transform="rotate(180,341.74,266.79)" style="fill:#263238" id="rect172"/>
    <polygon points="346.69,212.32 333.06,268.74 394.32,268.74 409.38,212.32 " style="fill:#263238" id="polygon174"/>
    <polygon points="405.85,214.93 349.56,214.93 336.82,264.47 392.81,264.47 " style="fill:#455a64" id="polygon176"/>
    <path d="m 393.2,265 h -57 l 13,-50.55 h 57.32 z m -55.74,-1 h 55 l 12.77,-48.55 H 350 Z" style="fill:#263238" id="path178"/>
    <rect x="136.14999" y="279.70001" width="4.0500002" height="193.56" style="fill:#455a64" id="rect180"/>
    <rect x="140.21001" y="280.25" width="4.0500002" height="193" style="fill:#263238" id="rect182"/>
    <rect x="385.92001" y="279.70001" width="4.0500002" height="193.56" style="fill:#455a64" id="rect184"/>
    <rect x="389.97" y="280.25" width="4.0500002" height="193" style="fill:#263238" id="rect186"/>
    <rect x="89.160004" y="268.45001" width="361.42999" height="15.88" style="fill:#455a64" id="rect188"/>
    <rect x="252.38" y="284.32999" width="135.57001" height="26.280001" style="fill:#455a64" id="rect190"/>
    <path d="m 326.21,295.65 a 3,3 0 1 1 -3,-3 3,3 0 0 1 3,3 z" style="fill:#263238" id="path192"/>
    <path d="m 417.48,284.33 c 0,0.14 -47,0.26 -104.9,0.26 -57.9,0 -104.9,-0.12 -104.9,-0.26 0,-0.14 47,-0.26 104.9,-0.26 57.9,0 104.9,0.12 104.9,0.26 z" style="fill:#263238" id="path194"/>
  </g>
  <g id="freepik--Character--inject-11" transform="translate(-39.354278,0.74377794)">
    <path d="m 292.38,97.52 c 0.54,0 7.85,1.22 7.85,1.22 l 9.89,12.46 1.49,2.36 -13.34,8.53 -5.89,-8.72 -5,-3.25 a 5.09,5.09 0 0 1 5.28,-0.55 15.62,15.62 0 0 0 6.23,1.22 l -1.76,-5 -5.42,-1.08 z" style="fill:#eb996e" id="path197"/>
    <path d="m 293,88.8 a 1.53,1.53 0 0 1 1.9,1.25 c 0.81,5.11 3.26,20.49 4,25 a 1.46,1.46 0 0 1 -1.06,1.66 L 286.07,120 a 1.46,1.46 0 0 1 -1.85,-1.23 L 281,93.24 a 1.54,1.54 0 0 1 1.15,-1.69 z" style="fill:#263238" id="path199"/>
    <path d="m 285.1,116.85 12,-3.35 -3.18,-21.24 a 2.05,2.05 0 0 0 -2.56,-1.68 l -9.61,2.55 z" style="fill:#ebebeb" id="path201"/>
    <path d="m 296.85,101.31 -5.39,4 c 0,0 0.45,1.42 1.27,1.52 a 33,33 0 0 0 5.16,-1.1 z" style="fill:#eb996e" id="path203"/>
    <path d="m 296.2,98.08 -5.65,2.48 c 0,0 -0.36,1.84 1.75,1.58 l -1.89,1.36 c 0,0 0.47,0.82 2.83,0.92 2.36,0.1 4.65,-3.18 4.65,-3.18 z" style="fill:#eb996e" id="path205"/>
    <path d="m 301.81,104.37 c 0,0.07 -0.69,-0.06 -1.44,-0.76 a 15.51,15.51 0 0 0 -1.3,-1.09 1.84,1.84 0 0 0 -1.79,-0.22 33.8,33.8 0 0 1 -4.9,2.32 24.45,24.45 0 0 1 4.72,-2.81 2.27,2.27 0 0 1 1.21,-0.14 2.77,2.77 0 0 1 1,0.46 8.47,8.47 0 0 1 1.28,1.22 11.43,11.43 0 0 0 1.22,1.02 z" style="fill:#d1734a" id="path207"/>
    <path d="m 300.7,118.45 a 7.72,7.72 0 0 1 -0.9,-8.49 18.32,18.32 0 0 0 -0.31,4.32 18.16,18.16 0 0 0 1.21,4.17 z" style="fill:#d1734a" id="path209"/>
    <path d="m 300,100.57 c -0.07,0.06 -0.37,-0.37 -1.09,-0.6 a 3.83,3.83 0 0 0 -2.87,0.33 c -1.06,0.51 -2,1.16 -2.75,1.47 -0.75,0.31 -1.28,0.38 -1.29,0.32 -0.01,-0.06 0.44,-0.24 1.12,-0.65 0.68,-0.41 1.56,-1.07 2.71,-1.61 a 4.53,4.53 0 0 1 1.74,-0.47 3.14,3.14 0 0 1 1.47,0.27 c 0.75,0.37 0.96,0.92 0.96,0.94 z" style="fill:#d1734a" id="path211"/>
    <path d="m 299.53,136 29.39,18.87 -7.79,22.28 c 0,0 -20.11,-6.21 -19.74,-6.86 0.37,-0.65 -1.86,-34.29 -1.86,-34.29 z" style="fill: #1DA1F2" id="path213"/>
    <path d="m 291.93,437.58 -4.63,21.29 c 0,0 20.09,11.85 19.62,15.86 l -41.6,-7.48 5.84,-33.47 z" style="fill:#263238" id="path215"/>
    <path d="m 265.32,467.25 0.72,-3.35 39.62,8.43 c 0,0 1.7,1.14 1.26,2.4 z" style="fill:#455a64" id="path217"/>
    <path d="m 244.61,439.92 -0.69,21.77 c 0,0 21.91,8 22.17,12.05 l -42.27,0.19 -0.32,-34 z" style="fill:#263238" id="path219"/>
    <g style="opacity:0.6" id="g223">
      <path d="m 223.82,473.93 0.1,-3.43 40.49,1.11 c 0,0 1.89,0.81 1.68,2.13 z" style="fill:#455a64" id="path221"/>
    </g>
    <path d="m 250.74,82.86 4.31,50 25,-2 c 0.15,-2.92 -0.06,-14.22 -0.06,-14.22 0,0 10.41,-1.62 10.54,-12 0.06,-5.06 -0.66,-15.5 -1.42,-24.91 A 19.26,19.26 0 0 0 268.81,62 v 0 a 19.26,19.26 0 0 0 -18.07,20.86 z" style="fill:#eb996e" id="path225"/>
    <path d="m 280,116.45 a 24.24,24.24 0 0 1 -13.57,-3.86 c 0,0 3.21,7.49 13.59,6.55 z" style="fill:#d1734a" id="path227"/>
    <path d="m 285.1,87 a 1.49,1.49 0 0 1 -1.44,1.5 1.42,1.42 0 0 1 -1.53,-1.34 1.49,1.49 0 0 1 1.43,-1.5 1.43,1.43 0 0 1 1.54,1.34 z" style="fill:#263238" id="path229"/>
    <path d="m 286.9,84.9 c -0.18,0.2 -1.31,-0.64 -2.91,-0.63 -1.6,0.01 -2.77,0.8 -2.94,0.61 -0.17,-0.19 0.1,-0.44 0.61,-0.81 a 4.13,4.13 0 0 1 2.36,-0.73 3.92,3.92 0 0 1 2.32,0.75 c 0.49,0.37 0.66,0.73 0.56,0.81 z" style="fill:#263238" id="path231"/>
    <path d="m 269.74,87 a 1.48,1.48 0 0 1 -1.43,1.5 1.43,1.43 0 0 1 -1.54,-1.34 1.5,1.5 0 0 1 1.44,-1.5 1.43,1.43 0 0 1 1.53,1.34 z" style="fill:#263238" id="path233"/>
    <path d="m 271.18,85.2 c -0.18,0.19 -1.31,-0.64 -2.91,-0.63 -1.6,0.01 -2.77,0.8 -2.94,0.6 -0.17,-0.2 0.1,-0.43 0.61,-0.8 a 4,4 0 0 1 2.36,-0.73 3.87,3.87 0 0 1 2.32,0.75 c 0.49,0.37 0.65,0.72 0.56,0.81 z" style="fill:#263238" id="path235"/>
    <path d="m 277,97.06 a 10.71,10.71 0 0 1 2.6,-0.47 c 0.4,0 0.79,-0.12 0.86,-0.4 a 2.12,2.12 0 0 0 -0.27,-1.21 c -0.39,-1 -0.79,-2 -1.21,-3.11 -1.68,-4.43 -2.89,-8.07 -2.71,-8.13 0.18,-0.06 1.68,3.47 3.36,7.89 0.4,1.1 0.79,2.14 1.15,3.13 a 2.4,2.4 0 0 1 0.22,1.61 1,1 0 0 1 -0.68,0.59 2.67,2.67 0 0 1 -0.69,0.1 10.13,10.13 0 0 1 -2.63,0 z" style="fill:#263238" id="path237"/>
    <path d="m 272.28,98.17 c 0.26,0 0.26,1.72 1.75,3 1.49,1.28 3.33,1 3.35,1.29 0.02,0.29 -0.41,0.33 -1.2,0.35 a 4.32,4.32 0 0 1 -2.79,-1 3.74,3.74 0 0 1 -1.39,-2.5 c 0,-0.72 0.16,-1.15 0.28,-1.14 z" style="fill:#263238" id="path239"/>
    <path d="m 271.6,78.93 c -0.16,0.44 -1.76,0.23 -3.64,0.46 -1.88,0.23 -3.39,0.74 -3.64,0.35 -0.11,-0.19 0.15,-0.6 0.77,-1 a 6.31,6.31 0 0 1 5.54,-0.61 c 0.69,0.25 1.03,0.6 0.97,0.8 z" style="fill:#263238" id="path241"/>
    <path d="m 286.32,80.27 c -0.28,0.37 -1.39,0 -2.71,0 -1.32,0 -2.45,0.25 -2.71,-0.13 -0.11,-0.19 0.07,-0.55 0.56,-0.9 a 3.93,3.93 0 0 1 4.36,0.14 c 0.47,0.34 0.62,0.72 0.5,0.89 z" style="fill:#263238" id="path243"/>
    <path d="m 262,71.45 h -0.06 a 8.19,8.19 0 0 0 -3,5.3 v 0.21 c -0.41,3 -0.33,6 -0.77,9 -0.44,3 -1.46,6 -3.66,8 -0.9,0.84 -2.49,1.42 -3.23,0.44 a 2.46,2.46 0 0 1 -0.37,-1.36 c -0.56,-7.17 -2.52,-13.53 -2.5,-21 A 6.3,6.3 0 0 1 251,66.88 c 1.57,-1.12 3.48,-2.29 5.23,-1.46 1.75,0.83 4,4.09 5.35,5.47" style="fill:#263238" id="path245"/>
    <path d="m 254.25,87.57 c -0.18,-0.08 -7.15,-2.12 -6.93,5 0.22,7.12 7.33,5.42 7.33,5.22 0,-0.2 -0.4,-10.22 -0.4,-10.22 z" style="fill:#eb996e" id="path247"/>
    <path d="m 252.39,95.16 c 0,0 -0.12,0.09 -0.32,0.19 a 1.24,1.24 0 0 1 -0.93,0.05 3.07,3.07 0 0 1 -1.51,-2.7 4.14,4.14 0 0 1 0.29,-1.79 1.44,1.44 0 0 1 0.9,-1 0.65,0.65 0 0 1 0.75,0.31 c 0.1,0.2 0.06,0.34 0.1,0.35 0.04,0.01 0.14,-0.12 0.08,-0.41 a 0.79,0.79 0 0 0 -0.3,-0.44 1,1 0 0 0 -0.69,-0.16 1.78,1.78 0 0 0 -1.26,1.15 4.17,4.17 0 0 0 -0.36,2 c 0.09,1.44 0.87,2.75 1.9,3 a 1.33,1.33 0 0 0 1.13,-0.23 c 0.22,-0.15 0.25,-0.31 0.22,-0.32 z" style="fill:#d1734a" id="path249"/>
    <path d="m 256,66.52 c -1.75,-2.85 3.05,-6.94 6.56,-8 3.51,-1.06 8.14,0.6 11.63,1.76 2.21,0.73 4.4,1.75 6.73,1.66 a 16.27,16.27 0 0 0 4.51,-1.15 11.4,11.4 0 0 1 4.55,-0.9 4.28,4.28 0 0 1 3.74,2.37 c 0.59,1.44 -0.25,3.42 -1.8,3.63 a 3.49,3.49 0 1 1 0.94,6.48 c 1,-0.77 2.56,0.5 2.43,1.76 a 3.67,3.67 0 0 1 -2.43,2.7 c -3,1.3 -6.43,0.88 -9.5,-0.15 -3.07,-1.03 -5.92,-2.64 -9,-3.75 -3.08,-1.11 -8.15,-3.11 -11.2,-2 -2.25,0.8 -3.82,3.51 -5.09,2.91 a 4.34,4.34 0 0 1 -2.25,-3.2 12.53,12.53 0 0 1 0.14,-4" style="fill:#263238" id="path251"/>
    <path d="m 292.77,65.66 c -0.06,0 -0.36,0.52 -1.13,1.35 a 9.75,9.75 0 0 1 -3.95,2.55 9.05,9.05 0 0 1 -6.79,-0.27 C 278.48,68.2 276.41,66 274,64 a 14.76,14.76 0 0 0 -8,-3.84 8.19,8.19 0 0 0 -6.8,2.35 6.19,6.19 0 0 0 -1.62,4.6 4.65,4.65 0 0 0 0.31,1.31 c 0.13,0.28 0.21,0.42 0.23,0.41 a 11.23,11.23 0 0 1 -0.27,-1.73 6.15,6.15 0 0 1 1.71,-4.25 7.81,7.81 0 0 1 6.44,-2.06 14.39,14.39 0 0 1 7.6,3.73 c 2.34,2 4.48,4.23 7.07,5.36 a 9.66,9.66 0 0 0 11.21,-2.69 6.34,6.34 0 0 0 0.74,-1.1 c 0.11,-0.27 0.17,-0.42 0.15,-0.43 z" style="fill:#455a64" id="path253"/>
    <path d="m 252.43,87.26 c 0,0 0.31,-0.2 0.58,-0.76 a 4.89,4.89 0 0 0 0.36,-2.58 c -0.16,-2.29 -2.19,-4.75 -2.45,-7.92 a 7.16,7.16 0 0 1 0.79,-4.25 5.46,5.46 0 0 1 2.64,-2.28 4.65,4.65 0 0 1 2.38,-0.33 c 0.57,0.1 0.88,0.23 0.91,0.17 a 1.75,1.75 0 0 0 -0.85,-0.43 4.41,4.41 0 0 0 -2.61,0.12 5.78,5.78 0 0 0 -3,2.42 7.6,7.6 0 0 0 -0.93,4.65 13.15,13.15 0 0 0 1.37,4.48 13.54,13.54 0 0 1 1.25,3.45 5.39,5.39 0 0 1 -0.44,3.26 z" style="fill:#455a64" id="path255"/>
    <path d="m 294.2,455.84 c 0,0 21.67,-106.3 21.69,-108.42 L 277.18,327 l -15,124.75 z" style="fill:#263238" id="path257"/>
    <path d="m 245.46,459.4 29.93,-184.23 v -39.74 l -43.34,3.1 c -0.52,1.55 -11.45,221.11 -11.45,221.11 l 4.22,-0.24 h 20.64" style="fill:#263238" id="path259"/>
    <polygon points="262.49,236.36 298.92,232.62 315.89,347.42 277.95,338.22 " style="fill:#263238" id="polygon261"/>
    <line x1="307.39001" y1="278.42999" x2="305.45999" y2="262.79999" style="fill: #1DA1F2" id="line263"/>
    <path d="m 305.46,282.07 c 0,0 6.6,-5.67 7.25,-9.94 0.65,-4.27 -7.91,-73 -7.91,-73 l -4.37,-56.82 c 0,1 0.12,-7.16 -1.2,-7.65 -4,-1.51 -12.22,-4.25 -12.22,-4.25 l -4.7,-4.22 c 0,0 8.44,36.08 10.08,45.94 z" style="fill: #1DA1F2" id="path265"/>
    <path d="m 251.27,122.27 -7.1,4.73 -26.63,10.47 11.83,44.61 -1.59,25.92 -1.51,16.45 c 0,0 -7.93,40.73 -14.93,65.48 0,0 7.81,14.8 14.23,16.86 l 2.67,1.59 9.52,-69.71 8.17,-11 c 0.79,-1.06 1.52,-2.15 2.21,-3.27 2,-3.27 6.58,-10.7 10.23,-16.43 4.82,-7.57 11,-24.77 9.17,-32.11 -1.83,-7.34 -16.27,-53.59 -16.27,-53.59 z" style="fill: #1DA1F2" id="path267"/>
    <path d="m 233.18,276.06 a 61,61 0 0 0 15.24,-18.32" style="fill:#263238" id="path269"/>
    <path d="m 251.27,122.27 6.41,41.13 a 59.48,59.48 0 0 1 -2.59,15.5 l -11.44,37 c 0,0 -9,20.17 -5.89,22.75 3.11,2.58 27.3,0 27.3,0 l 32.74,-4.75 a 2.88,2.88 0 0 0 2.45,-3.12 l -4.86,-50.22 c -1.64,-3.47 -2.31,-10.57 -3,-13.09 l -10.08,-41.27 -2.06,-0.27 -4.48,3.07 -2.36,0.19 -19.81,-9.59 z" style="fill:#ebebeb" id="path271"/>
    <path d="m 245.3,210.53 c 5.29,-16.49 12.14,-43.3 12.14,-43.3 2.13,14 -0.2,28.35 -5.41,41.55 -4.26,10.76 -9.41,18.9 -12.95,29.93 l -0.11,0.45 c 0,0 -2,0.11 -1.86,-2.84 0.14,-2.95 3,-11.73 4.91,-16.59 1.91,-4.86 3.28,-9.2 3.28,-9.2 z" style="fill:#e0e0e0" id="path273"/>
    <polygon points="275.02,143.29 278.94,142.9 280.22,138.53 279.17,136.09 276.91,132.49 272.46,132.49 271.13,138.58 " style="fill: #1DA1F2" id="polygon275"/>
    <path d="m 302.86,168.05 c 1.4,0.28 16.86,10.68 22.48,9.56 5.62,-1.12 10.17,-6.42 10.77,-7.13 3.19,-3.78 1.19,-11.63 0.27,-14.59 a 10,10 0 0 0 -0.91,-2.07 l -23.87,-41 -14.07,8.55 14.6,26.63 z" style="fill: #1DA1F2" id="path277"/>
    <path d="m 187.73,217.62 a 18.32,18.32 0 0 1 0.86,-15 c 3.24,-6.41 8.38,-16.76 9.46,-20.16 1.6,-5.05 16.56,-43.8 19.49,-45 l 13,43.89 -15.1,31.8 17.7,33.35 -14.75,15.9 c 0,0 -27.91,-38.92 -30.21,-43.73 q -0.24,-0.52 -0.45,-1.05 z" style="fill: #1DA1F2" id="path279"/>
    <path d="m 233.84,272.52 a 49.57,49.57 0 0 0 7.39,-8.72 0.32,0.32 0 0 1 0,-0.27 0.42,0.42 0 0 1 0.3,-0.18 42.69,42.69 0 0 0 2.32,-4.07 c -2.47,-1.61 -5.7,-4 -2.19,-4.54 4.33,-0.62 7.42,-2.72 7.86,-3.87 0.44,-1.15 -1,-2.18 -2.14,-1.45 a 15.69,15.69 0 0 1 -4.16,1.44 10.49,10.49 0 0 1 -3.53,0.22 c -1.37,-0.15 -7,-2.59 -8,-2.77 l -10.53,11.08 c 0,0 8.09,8.61 12.68,13.13 z" style="fill:#eb996e" id="path281"/>
    <path d="m 302.76,169.27 a 5.31,5.31 0 0 1 -0.37,-1.23 c -0.21,-0.8 -0.47,-2 -0.76,-3.43 A 111.72,111.72 0 0 1 300,153.16 109.42,109.42 0 0 1 299.58,141.6 c 0,-1.48 0.08,-2.67 0.14,-3.5 a 7.22,7.22 0 0 1 0.14,-1.28 5.47,5.47 0 0 1 0.06,1.29 c 0,0.93 0,2.1 0,3.49 0,3 0.17,7 0.57,11.52 0.4,4.52 1,8.52 1.48,11.43 0.23,1.37 0.43,2.53 0.59,3.45 a 6.8,6.8 0 0 1 0.2,1.27 z" style="fill:#263238" id="path283"/>
    <path d="m 315,171.64 c 0,0 -0.12,0 -0.34,-0.08 a 5.41,5.41 0 0 1 -0.89,-0.42 7.65,7.65 0 0 1 -2.54,-2.58 16.17,16.17 0 0 1 -1.82,-5 60.74,60.74 0 0 1 -1.19,-6.43 c -0.42,-4.62 -0.77,-8.77 -1,-11.79 -0.1,-1.43 -0.18,-2.63 -0.25,-3.58 a 6.07,6.07 0 0 1 0,-1.32 7.31,7.31 0 0 1 0.22,1.3 c 0.1,1 0.24,2.14 0.4,3.56 0.33,3 0.74,7.19 1.15,11.77 0.29,2.28 0.72,4.44 1.15,6.38 a 16.94,16.94 0 0 0 1.66,5 8.15,8.15 0 0 0 2.34,2.6 c 0.72,0.39 1.16,0.55 1.11,0.59 z" style="fill:#263238" id="path285"/>
    <g style="opacity:0.3" id="g289">
      <path d="m 306.94,140.48 a 88.23,88.23 0 0 0 -2.52,14.05 21.44,21.44 0 0 0 0.44,8.49 c 0.86,2.72 2.87,5.23 5.63,6 q -1.89,-13.92 -3.33,-27.89" id="path287"/>
    </g>
    <g style="opacity:0.3" id="g293">
      <path d="m 225.06,230.39 c 0,0 4.68,9.59 7.27,14.61 5.4,-22.31 -1.45,-45.79 0.78,-68.63 l -3.9,7.87 -1.1,18.21 -0.84,10.68 c 0,0 -0.8,11.49 -2.21,17.26 z" id="path291"/>
    </g>
    <path d="m 228.84,137.88 a 7.7,7.7 0 0 1 0.79,1.24 c 0.25,0.41 0.53,0.92 0.83,1.52 0.3,0.6 0.67,1.29 1,2.07 a 49.62,49.62 0 0 1 2.11,5.6 49.18,49.18 0 0 1 2.12,14.46 45.87,45.87 0 0 1 -0.41,6 c -0.08,0.85 -0.24,1.61 -0.36,2.27 -0.12,0.66 -0.24,1.24 -0.35,1.7 a 7.45,7.45 0 0 1 -0.41,1.42 8.38,8.38 0 0 1 0.21,-1.46 c 0.08,-0.47 0.18,-1 0.27,-1.71 0.09,-0.71 0.21,-1.42 0.28,-2.26 a 53.89,53.89 0 0 0 0.29,-5.93 57.49,57.49 0 0 0 -0.55,-7.23 58.44,58.44 0 0 0 -1.55,-7.09 51.69,51.69 0 0 0 -2,-5.59 c -0.3,-0.79 -0.65,-1.47 -0.92,-2.09 -0.27,-0.62 -0.53,-1.13 -0.75,-1.55 a 7.44,7.44 0 0 1 -0.6,-1.37 z" style="fill:#263238" id="path295"/>
    <path d="m 215.3,213.42 c -0.07,0.05 -0.74,-1 -2,-2.65 a 25.77,25.77 0 0 0 -5.91,-5.35 6.06,6.06 0 0 0 -4.08,-1 8,8 0 0 0 -3.23,1.38 c -1.69,1.16 -2.61,2.07 -2.68,2 a 2.92,2.92 0 0 1 0.6,-0.69 17.5,17.5 0 0 1 1.87,-1.62 8.11,8.11 0 0 1 3.33,-1.49 6.36,6.36 0 0 1 4.42,1 23,23 0 0 1 5.93,5.57 20.65,20.65 0 0 1 1.36,2.06 2.85,2.85 0 0 1 0.39,0.79 z" style="fill:#263238" id="path297"/>
    <path d="m 212,202.91 a 20.32,20.32 0 0 1 3.3,10.15 c -0.16,0 -0.55,-2.34 -1.47,-5.13 -0.92,-2.79 -1.94,-4.93 -1.83,-5.02 z" style="fill:#263238" id="path299"/>
    <path d="m 224.75,229.77 a 8.42,8.42 0 0 1 0.75,1.28 l 1.9,3.59 c 1.59,3.05 3.76,7.3 6.17,12.07 l 0.09,0.17 -0.13,0.13 -1,1 c -3.93,4.09 -7.5,7.78 -10.11,10.42 l -3.11,3.12 a 9.85,9.85 0 0 1 -1.19,1.1 9.58,9.58 0 0 1 1,-1.24 l 3,-3.23 c 2.54,-2.72 6.08,-6.44 10,-10.53 l 1,-1 v 0.3 c -2.4,-4.78 -4.52,-9 -6,-12.15 l -1.75,-3.66 a 7.7,7.7 0 0 1 -0.62,-1.37 z" style="fill:#263238" id="path301"/>
    <path d="m 244.23,209.65 a 4.85,4.85 0 0 1 0,-0.87 c 0,-0.61 0,-1.43 0,-2.47 0.05,-2.19 0.12,-5.29 0.21,-9.09 0.09,-3.8 0.19,-8.4 0.4,-13.47 a 73.4,73.4 0 0 1 2.24,-16.38 38.31,38.31 0 0 1 3.16,-7.91 l 0.19,0.38 a 5.43,5.43 0 0 1 -3.2,-1.81 7.86,7.86 0 0 1 -1.67,-3.11 24.71,24.71 0 0 1 -0.52,-6.48 c 0,-4.07 0,-7.71 0,-10.75 0,-3.04 0,-5.41 0,-7.13 0,-0.8 0,-1.44 0,-1.92 a 3.1,3.1 0 0 1 0,-0.66 3.44,3.44 0 0 1 0.05,0.66 c 0,0.48 0,1.12 0.05,1.92 0,1.72 0.06,4.13 0.11,7.12 0.05,2.99 0.07,6.68 0.11,10.76 a 24.26,24.26 0 0 0 0.54,6.35 7.41,7.41 0 0 0 1.57,2.9 4.9,4.9 0 0 0 2.9,1.64 l 0.36,0.06 -0.17,0.32 a 37.57,37.57 0 0 0 -3.11,7.8 75,75 0 0 0 -2.26,16.26 c -0.23,5.06 -0.36,9.63 -0.52,13.47 -0.16,3.84 -0.28,6.88 -0.37,9.08 l -0.12,2.47 a 8.63,8.63 0 0 1 0.05,0.86 z" style="fill:#263238" id="path303"/>
    <path d="m 287.08,131 a 2.75,2.75 0 0 1 0.24,0.55 c 0.14,0.42 0.34,1 0.57,1.61 l 2.07,6 c 0.86,2.57 1.89,5.62 3,9 0.55,1.73 1.23,3.49 1.74,5.44 a 7.06,7.06 0 0 1 0.13,3.11 4.16,4.16 0 0 1 -1.78,2.73 l 0.08,-0.37 c 0.84,1.25 1.73,2.58 2.56,4 a 24,24 0 0 1 2.8,6.48 22.71,22.71 0 0 1 0.45,6.56 c -0.24,4.15 -0.51,7.88 -0.73,11 -0.22,3.12 -0.41,5.62 -0.55,7.43 -0.07,0.83 -0.13,1.5 -0.17,2 a 3.6,3.6 0 0 1 -0.1,0.7 3.53,3.53 0 0 1 0,-0.71 c 0,-0.51 0.05,-1.19 0.08,-2 0.09,-1.82 0.22,-4.35 0.38,-7.44 0.16,-3.09 0.39,-6.89 0.63,-11 a 23.43,23.43 0 0 0 -0.47,-6.41 23.8,23.8 0 0 0 -2.76,-6.33 c -0.82,-1.38 -1.7,-2.7 -2.54,-4 l -0.15,-0.22 0.23,-0.14 a 3.63,3.63 0 0 0 1.55,-2.39 6.61,6.61 0 0 0 -0.11,-2.9 c -0.48,-1.88 -1.16,-3.69 -1.7,-5.4 -1.1,-3.43 -2.09,-6.49 -2.93,-9.07 -0.84,-2.58 -1.45,-4.57 -1.91,-6 -0.21,-0.67 -0.37,-1.22 -0.5,-1.64 A 4.11,4.11 0 0 1 287.08,131 Z" style="fill:#263238" id="path305"/>
    <path d="m 248.16,255.26 a 3.07,3.07 0 0 1 -0.46,0.82 c -0.32,0.51 -0.8,1.23 -1.41,2.11 -1.23,1.76 -3,4.15 -5,6.73 -2,2.58 -3.94,4.84 -5.36,6.44 -0.71,0.8 -1.3,1.44 -1.72,1.87 -0.42,0.43 -0.66,0.66 -0.69,0.64 a 26.35,26.35 0 0 1 2.13,-2.75 c 1.35,-1.66 3.21,-4 5.23,-6.52 2.02,-2.52 3.81,-4.92 5.11,-6.63 a 26.48,26.48 0 0 1 2.17,-2.71 z" style="fill:#455a64" id="path307"/>
    <path d="m 263.83,242.36 c 0,0 0,0.19 0,0.56 0,0.37 -0.1,0.94 -0.18,1.65 -0.16,1.46 -0.41,3.59 -0.72,6.32 -0.65,5.49 -1.62,13.44 -2.9,23.24 -2.53,19.61 -6.37,46.66 -10.5,76.54 -2.06,14.95 -4,29.19 -5.56,42.17 -0.41,3.24 -0.74,6.41 -1.2,9.48 -0.46,3.07 -0.93,6 -1.37,8.9 l -2.42,16 c -1.47,9.78 -2.63,17.69 -3.39,23.17 -0.38,2.73 -0.66,4.86 -0.83,6.31 -0.08,0.72 -0.14,1.27 -0.16,1.64 a 3.24,3.24 0 0 0 0,0.42 c 0,0.12 0.07,0 0.07,0 v 0 c 0,0 -0.08,0 -0.07,-0.05 a 1.55,1.55 0 0 1 0,-0.42 c 0,-0.37 0.05,-0.93 0.12,-1.65 0.13,-1.45 0.38,-3.59 0.73,-6.33 0.7,-5.49 1.8,-13.41 3.22,-23.19 0.73,-4.9 1.52,-10.25 2.36,-16 0.44,-2.88 0.88,-5.85 1.34,-8.91 0.46,-3.06 0.78,-6.23 1.19,-9.47 1.58,-13 3.46,-27.23 5.51,-42.18 4.13,-29.89 8,-56.92 10.66,-76.52 1.29,-9.78 2.33,-17.71 3.06,-23.21 0.35,-2.73 0.63,-4.85 0.82,-6.32 0.1,-0.7 0.17,-1.25 0.22,-1.64 0.05,-0.39 0,-0.51 0,-0.51 z" style="fill:#455a64" id="path309"/>
    <path d="m 286.65,454.85 a 5.19,5.19 0 0 1 0.07,-0.54 c 0.06,-0.38 0.14,-0.91 0.25,-1.6 0.25,-1.42 0.6,-3.47 1,-6.11 0.93,-5.33 2.28,-13 3.94,-22.47 L 305.15,350 a 17.3,17.3 0 0 0 0.32,-5.36 c -0.23,-1.78 -0.53,-3.58 -0.79,-5.34 q -0.81,-5.31 -1.61,-10.45 c -1.08,-6.84 -2.15,-13.44 -3.19,-19.72 -2.09,-12.56 -4.11,-23.85 -5.91,-33.31 -1.8,-9.46 -3.39,-17.09 -4.59,-22.34 -0.57,-2.63 -1.09,-4.66 -1.41,-6 -0.15,-0.67 -0.27,-1.2 -0.36,-1.57 -0.09,-0.37 -0.11,-0.54 -0.11,-0.54 a 5.19,5.19 0 0 1 0.16,0.53 l 0.42,1.56 c 0.35,1.37 0.9,3.39 1.5,6 1.26,5.23 2.9,12.86 4.75,22.31 1.85,9.45 3.9,20.74 6,33.3 1.06,6.28 2.13,12.88 3.22,19.72 q 0.8,5.15 1.62,10.45 c 0.27,1.78 0.56,3.54 0.8,5.36 a 18,18 0 0 1 -0.33,5.53 c -5.21,28.91 -9.92,55.09 -13.34,74.06 -1.73,9.46 -3.13,17.12 -4.1,22.44 -0.49,2.64 -0.88,4.69 -1.14,6.1 -0.13,0.68 -0.24,1.21 -0.31,1.58 -0.07,0.37 -0.1,0.54 -0.1,0.54 z" style="fill:#455a64" id="path311"/>
    <path d="m 275.39,273.87 c 0.15,0 -1.62,11.92 -3.95,26.58 -2.33,14.66 -4.32,26.55 -4.44,26.55 -0.12,0 1.63,-11.92 3.95,-26.58 2.32,-14.66 4.3,-26.57 4.44,-26.55 z" style="fill:#455a64" id="path313"/>
    <path d="m 245.82,459.07 a 4.39,4.39 0 0 1 -1,0.17 c -0.63,0.07 -1.55,0.16 -2.69,0.25 -2.27,0.18 -5.42,0.35 -8.9,0.4 -3.48,0.05 -6.64,0 -8.92,-0.11 -1.14,0 -2.06,-0.1 -2.69,-0.16 a 3.26,3.26 0 0 1 -1,-0.14 30.5,30.5 0 0 1 3.69,-0.06 c 2.28,0 5.42,0 8.9,-0.05 3.48,-0.05 6.61,-0.16 8.89,-0.25 a 27.64,27.64 0 0 1 3.72,-0.05 z" style="fill:#455a64" id="path315"/>
    <path d="m 294.2,455.84 a 6.38,6.38 0 0 1 -1.27,-0.07 l -3.44,-0.36 c -2.9,-0.33 -6.9,-0.83 -11.32,-1.4 -4.42,-0.57 -8.42,-1.12 -11.31,-1.54 l -3.42,-0.52 a 8.19,8.19 0 0 1 -1.25,-0.25 4.81,4.81 0 0 1 1.28,0.05 c 0.81,0.07 2,0.19 3.44,0.35 2.9,0.33 6.91,0.82 11.33,1.39 4.42,0.57 8.41,1.13 11.3,1.55 l 3.42,0.53 a 5.37,5.37 0 0 1 1.24,0.27 z" style="fill:#455a64" id="path317"/>
    <path d="m 252,128.92 a 6.76,6.76 0 0 1 1.1,0.71 l 2.94,2 c 2.5,1.71 6,4 10,6.28 1.5,0.86 3,1.66 4.32,2.38 l -0.36,0.16 c 0.84,-3.32 1.58,-6.17 2.12,-8.18 0.26,-0.94 0.48,-1.72 0.66,-2.36 a 3.74,3.74 0 0 1 0.29,-0.83 3.54,3.54 0 0 1 -0.13,0.87 c -0.14,0.65 -0.31,1.44 -0.51,2.39 -0.47,2 -1.14,4.9 -2,8.23 l -0.07,0.3 -0.28,-0.14 c -1.37,-0.71 -2.85,-1.51 -4.35,-2.37 a 106.9,106.9 0 0 1 -9.94,-6.43 c -1.22,-0.89 -2.19,-1.65 -2.85,-2.18 A 5.7,5.7 0 0 1 252,128.92 Z" style="fill:#263238" id="path319"/>
    <path d="m 285,136.28 a 34,34 0 0 1 -4.42,3 l -0.22,0.14 -0.12,-0.24 -1.35,-2.63 c -1,-2 -1.95,-3.9 -2.58,-5.26 a 11.47,11.47 0 0 1 -0.94,-2.25 11.21,11.21 0 0 1 1.26,2.09 c 0.72,1.31 1.69,3.14 2.72,5.18 l 1.35,2.69 -0.34,-0.1 a 36.78,36.78 0 0 1 4.64,-2.62 z" style="fill:#263238" id="path321"/>
    <path d="m 278.48,135.3 a 5,5 0 0 1 -0.88,0.69 c -0.55,0.41 -1.33,1 -2.2,1.55 -0.87,0.55 -1.66,1.12 -2.24,1.5 a 6.66,6.66 0 0 1 -1,0.57 5.23,5.23 0 0 1 0.88,-0.7 c 0.56,-0.4 1.34,-0.95 2.2,-1.54 l 2.24,-1.5 a 6.66,6.66 0 0 1 1,-0.57 z" style="fill:#263238" id="path323"/>
    <path d="m 275.48,137.37 a 17.47,17.47 0 0 1 -2,-1.84 17.78,17.78 0 0 1 -1.79,-2 16.93,16.93 0 0 1 1.94,1.84 17.68,17.68 0 0 1 1.85,2 z" style="fill:#263238" id="path325"/>
    <path d="m 256.64,226.08 a 23.27,23.27 0 0 0 2.07,7.21 23,23 0 0 0 4.66,5.87 6.15,6.15 0 0 1 -1.83,-1.31 15.45,15.45 0 0 1 -4.9,-9.52 6.37,6.37 0 0 1 0,-2.25 z" style="fill:#263238" id="path327"/>
    <path d="m 262.46,239.26 a 14,14 0 0 1 -8.79,-4.13 c 0.1,-0.12 1.82,1.25 4.24,2.38 2.42,1.13 4.58,1.59 4.55,1.75 z" style="fill:#263238" id="path329"/>
    <path d="m 282,207.25 a 4.1,4.1 0 0 1 0.37,1.07 c 0.21,0.7 0.48,1.72 0.78,3 0.62,2.53 1.35,6.06 1.93,10 0.58,3.94 0.91,7.52 1.06,10.13 0.07,1.3 0.11,2.35 0.11,3.08 a 4.34,4.34 0 0 1 0,1.13 5.32,5.32 0 0 1 -0.16,-1.12 c -0.08,-0.84 -0.17,-1.86 -0.28,-3.07 -0.24,-2.58 -0.62,-6.15 -1.2,-10.07 -0.58,-3.92 -1.26,-7.45 -1.78,-10 -0.24,-1.19 -0.45,-2.2 -0.62,-3 A 5.27,5.27 0 0 1 282,207.25 Z" style="fill:#263238" id="path331"/>
    <path d="m 275.34,144.31 c -1.3,10.39 -2.26,33 -2.62,43.49 -0.3,8.76 -0.27,17.53 -0.24,26.3 0,2.83 0,5.75 1.21,8.32 2.09,4.63 7.2,7 11.89,8.88 z" style="fill:#e0e0e0" id="path333"/>
    <path d="m 287,229.8 5.37,-13.16 -13.43,-73.74 -3.92,0.39 c 0,0 0.55,76.64 0.37,77.33 z" style="fill: #1DA1F2" id="path335"/>
    <path d="m 278.8,142.9 a 6.68,6.68 0 0 1 -1.87,0.31 7.19,7.19 0 0 1 -1.88,0 12.44,12.44 0 0 1 1.87,-0.18 15,15 0 0 1 1.88,-0.13 z" style="fill:#263238" id="path337"/>
  </g>
  <g id="freepik--Bird--inject-14" transform="matrix(-1,0,0,1,553.9864,-36.472147)">
    <rect x="219.08" y="137.45" width="31.049999" height="19.52" rx="1.38" transform="rotate(28.31,234.59365,147.18509)" style="fill: #1DA1F2" id="rect1934"/>
    <rect x="219.08" y="137.45" width="31.049999" height="19.52" rx="1.38" transform="rotate(28.31,234.59365,147.18509)" style="opacity:0.7;isolation:isolate;fill:#ffffff" id="rect1936"/>
    <path d="m 224.25,133.69 7.75,14.55 a 3.18,3.18 0 0 0 3.12,1.66 l 16.21,-1.6 -16.5,2.43 a 3.38,3.38 0 0 1 -3.56,-1.92 z" style="opacity:0.2;isolation:isolate" id="path1938"/>
    <path d="m 205.34,131 c 0.27,-5.56 4.39,-16.77 9.4,-20.2 5.01,-3.43 1.71,1.32 1.71,1.32 0,0 4.75,-4.62 7.25,-4.48 2.5,0.14 0,3 0,3 0,0 5.15,-3.17 7.52,-3 2.37,0.17 0,2.91 0,2.91 0,0 4.22,-3 5.93,-1.59 1.71,1.41 -21.89,17 -24.52,23.34 -2.63,6.34 -7.56,4.31 -7.29,-1.3 z" style="fill: #1DA1F2" id="path1940"/>
    <path d="m 205.34,131 c 0.27,-5.56 4.39,-16.77 9.4,-20.2 5.01,-3.43 1.71,1.32 1.71,1.32 0,0 4.75,-4.62 7.25,-4.48 2.5,0.14 0,3 0,3 0,0 5.15,-3.17 7.52,-3 2.37,0.17 0,2.91 0,2.91 0,0 4.22,-3 5.93,-1.59 1.71,1.41 -21.89,17 -24.52,23.34 -2.63,6.34 -7.56,4.31 -7.29,-1.3 z" style="opacity:0.4;isolation:isolate;fill:#ffffff" id="path1942"/>
    <path d="m 225.62,130.16 3.15,2 a 0.26,0.26 0 0 1 -0.16,0.48 l -3.31,-0.26 0.28,2.54 a 0.28,0.28 0 0 1 -0.49,0.22 L 223.18,133 Z" style="fill: #1DA1F2" id="path1944"/>
    <path d="m 225.62,130.16 3.15,2 a 0.26,0.26 0 0 1 -0.16,0.48 l -3.31,-0.26 0.28,2.54 a 0.28,0.28 0 0 1 -0.49,0.22 L 223.18,133 Z" style="opacity:0.3;isolation:isolate;fill:#ffffff" id="path1946"/>
    <path d="m 181.37,117.64 c 0,0 4.36,-3 10.95,-1.06 0,0 1.89,8.71 7.08,11.61 2.85,1.59 9.82,1.45 15.34,-0.33 6.55,-2.12 9.75,-2.12 10.94,0.33 1.19,2.45 -0.13,5 -5.14,6.19 -5.01,1.19 -9,9.89 -18.07,10 -9.07,0.11 -13.89,-9 -11.6,-17 a 24.16,24.16 0 0 0 -9.5,-9.74 z" style="fill: #1DA1F2" id="path1948"/>
    <path d="m 181.37,117.64 c 0,0 4.36,-3 10.95,-1.06 0,0 1.89,8.71 7.08,11.61 2.85,1.59 9.82,1.45 15.34,-0.33 6.55,-2.12 9.75,-2.12 10.94,0.33 1.19,2.45 -0.13,5 -5.14,6.19 -5.01,1.19 -9,9.89 -18.07,10 -9.07,0.11 -13.89,-9 -11.6,-17 a 24.16,24.16 0 0 0 -9.5,-9.74 z" style="opacity:0.5;isolation:isolate;fill:#ffffff" id="path1950"/>
    <path d="m 223.18,129.84 a 0.45,0.45 0 1 1 -0.45,-0.45 0.45,0.45 0 0 1 0.45,0.45 z" style="fill:#263238" id="path1952"/>
    <path d="m 200.36,137.16 c -5.37,1.46 -17.31,1 -22.11,-2.7 -4.8,-3.7 0.72,-2 0.72,-2 0,0 -5.85,-3.09 -6.5,-5.51 -0.65,-2.42 2.88,-0.94 2.88,-0.94 0,0 -4.6,-3.91 -5.2,-6.21 -0.6,-2.3 2.76,-0.9 2.76,-0.9 0,0 -4.19,-3.08 -3.34,-5.15 0.85,-2.07 22.94,15.57 29.77,16.12 6.83,0.55 6.46,5.81 1.02,7.29 z" style="fill: #1DA1F2" id="path1954"/>
    <path d="m 200.36,137.16 c -5.37,1.46 -17.31,1 -22.11,-2.7 -4.8,-3.7 0.72,-2 0.72,-2 0,0 -5.85,-3.09 -6.5,-5.51 -0.65,-2.42 2.88,-0.94 2.88,-0.94 0,0 -4.6,-3.91 -5.2,-6.21 -0.6,-2.3 2.76,-0.9 2.76,-0.9 0,0 -4.19,-3.08 -3.34,-5.15 0.85,-2.07 22.94,15.57 29.77,16.12 6.83,0.55 6.46,5.81 1.02,7.29 z" style="opacity:0.4;isolation:isolate;fill:#ffffff" id="path1956"/>
    <path d="m 165.16,112.83 a 0.25,0.25 0 0 1 -0.12,0 c -0.93,-0.33 -1.88,-0.64 -2.84,-0.93 a 0.38,0.38 0 0 1 -0.25,-0.47 0.38,0.38 0 0 1 0.47,-0.25 c 1,0.29 1.93,0.61 2.87,1 a 0.37,0.37 0 0 1 -0.13,0.72 z" style="fill: #1DA1F2" id="path1958"/>
    <path d="m 104.72,194 a 0.38,0.38 0 0 1 -0.38,-0.37 0.38,0.38 0 0 1 0.37,-0.38 35.8,35.8 0 0 0 5.93,-0.58 0.38,0.38 0 0 1 0.44,0.3 0.37,0.37 0 0 1 -0.3,0.44 36.3,36.3 0 0 1 -6.06,0.59 z m -6,-0.32 v 0 a 51.69,51.69 0 0 1 -6,-1 0.38,0.38 0 0 1 -0.29,-0.45 0.38,0.38 0 0 1 0.45,-0.28 55.76,55.76 0 0 0 5.9,1 0.38,0.38 0 0 1 0,0.75 z m 17.77,-2 a 0.37,0.37 0 0 1 -0.34,-0.22 0.37,0.37 0 0 1 0.19,-0.5 19.44,19.44 0 0 0 5,-3.13 0.38,0.38 0 0 1 0.5,0.57 20.54,20.54 0 0 1 -5.19,3.25 0.4,0.4 0 0 1 -0.18,0.05 z M 87,191 a 0.25,0.25 0 0 1 -0.12,0 c -1.9,-0.63 -3.81,-1.37 -5.66,-2.18 a 0.38,0.38 0 0 1 0.31,-0.69 c 1.82,0.8 3.7,1.53 5.59,2.16 a 0.38,0.38 0 0 1 0.23,0.48 A 0.37,0.37 0 0 1 87,191 Z m -11,-4.86 a 0.31,0.31 0 0 1 -0.18,0 c -1.79,-1 -3.53,-2.08 -5.15,-3.21 a 0.37316216,0.37316216 0 1 1 0.43,-0.61 c 1.6,1.11 3.31,2.18 5.09,3.17 a 0.37,0.37 0 0 1 0.14,0.51 0.39,0.39 0 0 1 -0.4,0.17 z m 49.44,-2.29 a 0.31,0.31 0 0 1 -0.18,0 0.37,0.37 0 0 1 -0.14,-0.51 c 0.31,-0.54 0.6,-1.1 0.86,-1.68 a 20.62,20.62 0 0 0 1.3,-3.81 0.39,0.39 0 0 1 0.46,-0.28 0.38,0.38 0 0 1 0.27,0.46 22.33,22.33 0 0 1 -1.35,3.94 c -0.27,0.6 -0.57,1.19 -0.89,1.75 a 0.38,0.38 0 0 1 -0.4,0.16 z m -59.3,-4.62 a 0.38,0.38 0 0 1 -0.24,-0.09 43.51,43.51 0 0 1 -4.27,-4.34 0.38,0.38 0 0 1 0,-0.53 0.37,0.37 0 0 1 0.52,0 42.93,42.93 0 0 0 4.19,4.25 0.38,0.38 0 0 1 0,0.53 0.37,0.37 0 0 1 -0.27,0.21 z m 62.18,-6.94 a 0.37,0.37 0 0 1 -0.37,-0.38 35,35 0 0 0 -0.55,-5.93 0.38,0.38 0 0 1 0.3,-0.44 0.39,0.39 0 0 1 0.44,0.31 35.49,35.49 0 0 1 0.56,6.06 0.38,0.38 0 0 1 -0.38,0.38 z m -2,-11.86 a 0.38,0.38 0 0 1 -0.36,-0.27 c -0.51,-1.75 -1.14,-3.61 -1.91,-5.69 a 0.37,0.37 0 0 1 0.22,-0.49 0.38,0.38 0 0 1 0.48,0.22 c 0.78,2.1 1.41,4 1.93,5.74 a 0.38,0.38 0 0 1 -0.25,0.47 z m -4.14,-11.35 a 0.36,0.36 0 0 1 -0.33,-0.21 c -0.64,-1.6 -1.51,-3.44 -2.42,-5.39 v -0.1 a 0.38,0.38 0 0 1 0.68,-0.32 v 0.1 c 0.92,2 1.78,3.81 2.42,5.38 a 0.39,0.39 0 0 1 -0.2,0.51 z m -5,-11 a 0.37,0.37 0 0 1 -0.35,-0.22 c -0.9,-2.09 -1.62,-3.94 -2.19,-5.65 a 0.38,0.38 0 0 1 0.23,-0.48 0.38,0.38 0 0 1 0.48,0.24 c 0.56,1.69 1.27,3.52 2.17,5.59 a 0.37,0.37 0 0 1 -0.2,0.49 0.32,0.32 0 0 1 -0.12,0.08 z m -3.66,-11.46 a 0.38,0.38 0 0 1 -0.37,-0.32 20.66,20.66 0 0 1 -0.26,-3.24 14.79,14.79 0 0 1 0.26,-2.89 0.38,0.38 0 0 1 0.74,0.15 14,14 0 0 0 -0.25,2.74 20.56,20.56 0 0 0 0.25,3.13 0.39,0.39 0 0 1 -0.31,0.43 z m 2.61,-11.36 a 0.37,0.37 0 0 1 -0.24,-0.08 0.38,0.38 0 0 1 0,-0.53 16,16 0 0 1 4.81,-3.81 0.38,0.38 0 0 1 0.51,0.15 0.39,0.39 0 0 1 -0.16,0.51 15.24,15.24 0 0 0 -4.58,3.63 0.37,0.37 0 0 1 -0.32,0.18 z m 40.32,-4.9 h -0.08 c -1.92,-0.4 -3.91,-0.74 -5.92,-1 a 0.37,0.37 0 0 1 -0.32,-0.42 0.37,0.37 0 0 1 0.42,-0.32 c 2,0.26 4,0.6 6,1 a 0.38,0.38 0 0 1 -0.07,0.75 z m -30,-0.85 a 0.37215588,0.37215588 0 0 1 -0.08,-0.74 39.56,39.56 0 0 1 6,-0.87 0.38,0.38 0 0 1 0.4,0.35 0.37,0.37 0 0 1 -0.35,0.4 38,38 0 0 0 -5.9,0.85 z m 18,-0.7 v 0 c -1.74,-0.12 -3.81,-0.25 -6,-0.29 a 0.38,0.38 0 0 1 -0.37,-0.38 0.37,0.37 0 0 1 0.38,-0.37 c 2.21,0.05 4.3,0.17 6,0.29 a 0.37,0.37 0 0 1 0.35,0.4 0.38,0.38 0 0 1 -0.29,0.4 z" style="fill: #1DA1F2" id="path1960"/>
    <path d="m 58.36,170 a 0.37,0.37 0 0 1 -0.33,-0.19 24.54,24.54 0 0 1 -1.35,-2.72 0.37,0.37 0 0 1 0.2,-0.49 0.38,0.38 0 0 1 0.49,0.2 25.88,25.88 0 0 0 1.31,2.64 0.36,0.36 0 0 1 -0.32,0.56 z" style="fill: #1DA1F2" id="path1962"/>
  </g>
</svg>